<?xml version="1.0" encoding="utf-8"?>
<!-- Generator: Adobe Illustrator 16.0.0, SVG Export Plug-In . SVG Version: 6.00 Build 0)  -->
<!DOCTYPE svg PUBLIC "-//W3C//DTD SVG 1.1//EN" "http://www.w3.org/Graphics/SVG/1.1/DTD/svg11.dtd">
<svg version="1.1" id="Ebene_1" xmlns="http://www.w3.org/2000/svg" xmlns:xlink="http://www.w3.org/1999/xlink" x="0px" y="0px"
	 width="300px" height="300px" viewBox="0 0 300 300" enable-background="new 0 0 300 300" xml:space="preserve">
<g transform="translate(-235.04 -20.292)">
	<path fill="#C7C7C7" stroke="#797979" d="M315.517,52.015c-1.178,0.032-2.367,0.354-3.463,0.987l-70.208,40.535
		c-3.507,2.025-4.697,6.472-2.672,9.979l23.916,41.431c2.025,3.508,6.482,4.698,9.99,2.672l36.692-21.183v154.816
		c0,4.051,3.268,7.318,7.318,7.318h135.545c4.05,0,7.308-3.268,7.308-7.318V126.226l37.072,21.398
		c3.508,2.025,7.955,0.835,9.98-2.672l23.916-41.431c2.024-3.507,0.835-7.955-2.672-9.98l-70.198-40.535
		c-1.425-0.823-3.011-1.114-4.522-0.935c-0.29-0.035-0.584-0.052-0.884-0.052h-38.829c-0.575,4.607-13.248,8.294-28.768,8.294
		s-28.183-3.688-28.757-8.294h-39.189c-0.236,0-0.469,0.02-0.699,0.042c-0.292-0.028-0.579-0.049-0.874-0.042L315.517,52.015z"/>
</g>
</svg>
