<?xml version="1.0" encoding="iso-8859-1"?>
<!-- Generator: Adobe Illustrator 19.0.0, SVG Export Plug-In . SVG Version: 6.00 Build 0)  -->
<svg version="1.1" id="Capa_1" xmlns="http://www.w3.org/2000/svg" xmlns:xlink="http://www.w3.org/1999/xlink" x="0px" y="0px"
	 viewBox="0 0 508 508" style="enable-background:new 0 0 508 508;" xml:space="preserve">
<g>
	<g>
		<path d="M98.15,192.6h-21c-7.8,0-14.1,6.3-14.1,14.1s6.3,14.1,14.1,14.1h21c7.8,0,14.1-6.3,14.1-14.1
			C112.25,198.9,105.95,192.6,98.15,192.6z"/>
	</g>
</g>
<g>
	<g>
		<path d="M209.05,192.6h-21c-7.8,0-14.1,6.3-14.1,14.1s6.3,14.1,14.1,14.1h21c7.8,0,14.1-6.3,14.1-14.1
			C223.25,198.9,216.85,192.6,209.05,192.6z"/>
	</g>
</g>
<g>
	<g>
		<path d="M320.05,192.6h-21c-7.8,0-14.1,6.3-14.1,14.1c-0.1,7.8,6.3,14.1,14.1,14.1h21c7.8,0,14.1-6.3,14.1-14.1
			C334.15,198.9,327.85,192.6,320.05,192.6z"/>
	</g>
</g>
<g>
	<g>
		<path d="M430.95,192.6h-21c-7.8,0-14.1,6.3-14.1,14.1c0,7.8,6.3,14.1,14.1,14.1h21c7.8,0,14.1-6.3,14.1-14.1
			C445.05,198.9,438.75,192.6,430.95,192.6z"/>
	</g>
</g>
<g>
	<g>
		<path d="M98.15,267h-21c-7.8,0-14.1,6.3-14.1,14.1s6.3,14.1,14.1,14.1h21c7.8,0,14.1-6.3,14.1-14.1
			C112.25,273.3,105.95,267,98.15,267z"/>
	</g>
</g>
<g>
	<g>
		<path d="M209.05,267h-21c-7.8,0-14.1,6.3-14.1,14.1s6.3,14.1,14.1,14.1h21c7.8,0,14.1-6.3,14.1-14.1
			C223.25,273.3,216.85,267,209.05,267z"/>
	</g>
</g>
<g>
	<g>
		<path d="M320.05,267h-21c-7.8,0-14.1,6.3-14.1,14.1s6.3,14.1,14.1,14.1h21c7.8,0,14.1-6.3,14.1-14.1
			C334.15,273.3,327.85,267,320.05,267z"/>
	</g>
</g>
<g>
	<g>
		<path d="M430.95,267h-21c-7.8,0-14.1,6.3-14.1,14.1s6.3,14.1,14.1,14.1h21c7.8,0,14.1-6.3,14.1-14.1
			C445.05,273.3,438.75,267,430.95,267z"/>
	</g>
</g>
<g>
	<g>
		<path d="M98.15,341.4h-21c-7.8,0-14.1,6.3-14.1,14.1c0,7.8,6.3,14.1,14.1,14.1h21c7.8,0,14.1-6.3,14.1-14.1
			S105.95,341.4,98.15,341.4z"/>
	</g>
</g>
<g>
	<g>
		<path d="M209.05,341.4h-21c-7.8,0-14.1,6.3-14.1,14.1c0,7.8,6.3,14.1,14.1,14.1h21c7.8,0,14.1-6.3,14.1-14.1
			C223.25,347.7,216.85,341.4,209.05,341.4z"/>
	</g>
</g>
<g>
	<g>
		<path d="M320.05,341.4h-21c-7.8,0-14.1,6.3-14.1,14.1c0,7.8,6.3,14.1,14.1,14.1h21c7.8,0,14.1-6.3,14.1-14.1
			S327.85,341.4,320.05,341.4z"/>
	</g>
</g>
<g>
	<g>
		<path d="M98.15,415.8h-21c-7.8,0-14.1,6.3-14.1,14.1s6.3,14.1,14.1,14.1h21c7.8,0,14.1-6.3,14.1-14.1
			C112.25,422.1,105.95,415.8,98.15,415.8z"/>
	</g>
</g>
<g>
	<g>
		<path d="M209.05,415.8h-21c-7.8,0-14.1,6.3-14.1,14.1s6.3,14.1,14.1,14.1h21c7.8,0,14.1-6.3,14.1-14.1
			C223.25,422.1,216.85,415.8,209.05,415.8z"/>
	</g>
</g>
<g>
	<g>
		<path d="M320.05,415.8h-21c-7.8,0-14.1,6.3-14.1,14.1s6.3,14.1,14.1,14.1h21c7.8,0,14.1-6.3,14.1-14.1
			C334.15,422.1,327.85,415.8,320.05,415.8z"/>
	</g>
</g>
<g>
	<g>
		<path d="M467.25,38.9h-53.1V14.1c0-7.8-6.3-14.1-14.1-14.1c-7.7,0-14,6.3-14,14.1v24.8h-264V14.1c0-7.8-6.3-14.1-14.1-14.1
			c-7.8,0-14.1,6.3-14.1,14.1v24.8h-53c-22.5,0-40.8,18.3-40.8,40.7v387.6c0,22.5,18.3,40.8,40.8,40.8h337.7
			c10.9,0,21.1-4.2,28.8-11.9l88.7-88.8c7.7-7.7,11.9-17.9,11.9-28.8V79.6C508.05,57.2,489.75,38.9,467.25,38.9z M403.65,459.8
			v-56.2h56.2L403.65,459.8z M479.85,375.4h-90.3c-7.8,0-14.1,6.3-14.1,14.1v90.3H40.85c-6.9,0-12.6-5.7-12.6-12.6V156.8h451.6
			V375.4z M479.85,128.6H28.25v-49c0-6.9,5.6-12.5,12.5-12.5h53.1v24.8c0,7.8,6.3,14.1,14.1,14.1s14.1-6.3,14.1-14.1V67.1h264v24.8
			c0,7.8,6.3,14.1,14.1,14.1c7.8,0,14.1-6.3,14.1-14.1V67.1h53.1c6.9,0,12.5,5.6,12.5,12.5V128.6z"/>
	</g>
</g>
<g>
</g>
<g>
</g>
<g>
</g>
<g>
</g>
<g>
</g>
<g>
</g>
<g>
</g>
<g>
</g>
<g>
</g>
<g>
</g>
<g>
</g>
<g>
</g>
<g>
</g>
<g>
</g>
<g>
</g>
</svg>
