<?xml version="1.0" encoding="iso-8859-1"?>
<!-- Generator: Adobe Illustrator 19.0.0, SVG Export Plug-In . SVG Version: 6.00 Build 0)  -->
<svg version="1.1" id="Capa_1" xmlns="http://www.w3.org/2000/svg" xmlns:xlink="http://www.w3.org/1999/xlink" x="0px" y="0px"
	 viewBox="0 0 508.004 508.004" style="enable-background:new 0 0 508.004 508.004;" xml:space="preserve">
<g>
	<g>
		<path d="M465.102,130.804h-7.7v-116.7c0-4.5-2.2-8.8-5.8-11.4c-3.7-2.7-8.4-3.4-12.7-2l-398.7,130.3c-22.4,1.4-40.2,20-40.2,42.7
			v291.4c0,23.7,19.3,42.9,42.9,42.9h422.2c23.7,0,42.9-19.2,42.9-42.9v-291.4C508.002,150.004,488.802,130.804,465.102,130.804z
			 M429.202,33.504v97.3h-297.7L429.202,33.504z M479.602,465.104c0.2,8.1-6.4,14.7-14.5,14.7h-422.2c-8.1,0-14.7-6.6-14.7-14.7
			v-291.4c0-8.1,6.6-14.7,14.6-14.7h422.1c8.1,0,14.7,6.6,14.7,14.7v73.3h-86.9c-3.7,0-7.3,1.5-10,4.1l-55.4,55.4
			c-2.6,2.6-4.1,6.2-4.1,10c0,3.7,1.5,7.3,4.1,10c10.8,10.8,44.6,44.6,55.4,55.5c2.7,2.7,6.3,4.2,10,4.2h86.9V465.104z
			 M479.802,358.004h-81c-10.2-10.3-28.7-28.8-41.3-41.4l41.3-41.3h81V358.004z"/>
	</g>
</g>
<g>
	<g>
		<path d="M406.102,302.504h-6.4c-7.8,0-14.1,6.3-14.1,14.1s6.3,14.1,14.1,14.1h6.4c7.8,0,14.1-6.3,14.1-14.1
			C420.202,308.804,413.902,302.504,406.102,302.504z"/>
	</g>
</g>
<g>
</g>
<g>
</g>
<g>
</g>
<g>
</g>
<g>
</g>
<g>
</g>
<g>
</g>
<g>
</g>
<g>
</g>
<g>
</g>
<g>
</g>
<g>
</g>
<g>
</g>
<g>
</g>
<g>
</g>
</svg>
