<?xml version="1.0" encoding="utf-8"?>
<!-- Generator: Adobe Illustrator 16.0.0, SVG Export Plug-In . SVG Version: 6.00 Build 0)  -->
<!DOCTYPE svg PUBLIC "-//W3C//DTD SVG 1.1//EN" "http://www.w3.org/Graphics/SVG/1.1/DTD/svg11.dtd">
<svg version="1.1" id="Icons" xmlns="http://www.w3.org/2000/svg" xmlns:xlink="http://www.w3.org/1999/xlink" x="0px" y="0px"
	 width="300px" height="150px" viewBox="0 0 300 150" enable-background="new 0 0 300 150" xml:space="preserve">
<g>
	<path fill="#E5E5E5" d="M205.013,126.188c-10.05-5.138-20.438-9.412-30.976-13.463c-0.787-0.3-1.725-0.899-2.024-1.574
		c-0.862-1.875-1.425-3.9-2.063-5.888c-0.375-1.275-0.713-2.476-2.101-3.075c-0.375-0.15-0.712-0.9-0.712-1.35
		c0.075-4.613-1.013-9.488,2.399-13.5c0.113-0.15,0.15-0.301,0.226-0.488c1.837-4.05,2.175-8.662,4.763-12.412
		c0.074-0.075,0.074-0.188,0.074-0.3c0.301-2.85,0.601-5.738,0.863-8.625c0.037-0.375-0.263-0.975-0.601-1.088
		c-1.425-0.525-1.35-1.65-1.35-2.813c0-5.625,0-11.212,0-16.837c0-3.225-0.976-6.15-3.413-8.362
		c-2.813-2.513-5.699-4.988-8.55-7.425c-1.388-1.162-6.412-2.475-10.763-2.362c-6.149,0.15-11.774,1.875-16.649,5.85
		c-3.338,2.737-5.963,5.925-6.3,10.425c-0.188,2.325-0.15,4.725-0.15,7.087c-0.038,3.825,0.038,7.688-0.075,11.55
		c0,0.637-0.375,1.65-0.787,1.8c-1.575,0.488-1.613,1.5-1.388,2.775c0.15,0.9,0.038,1.838,0.225,2.7c0.525,2.4,1.087,4.8,1.8,7.2
		c0.525,1.763,1.538,3.412,1.8,5.212c0.563,3.601,1.875,6.713,4.313,9.413c0.412,0.45,0.712,1.2,0.675,1.8
		c-0.188,2.775-0.487,5.513-0.862,8.25c-0.075,0.525-0.638,1.35-1.125,1.425c-1.838,0.375-2.1,1.8-2.55,3.226
		c-0.6,1.875-1.2,3.75-1.95,5.625c-0.225,0.563-0.788,1.162-1.35,1.387c-3.263,1.426-6.563,2.738-9.863,4.088
		c-3.487,1.463-7.012,2.888-10.425,4.5c-3.525,1.688-6.938,3.6-10.35,5.438c-2.025,1.088-3.938,2.287-5.512,3.787v6.038h120v-6.3
		C208.763,128.475,207.037,127.2,205.013,126.188z"/>
	<path fill="#E5E5E5" d="M181.088,65.962c-0.188,2.325-0.45,4.688-0.676,6.938l-0.149,1.613c-0.075,1.125-0.45,2.175-1.088,3.112
		c-1.013,1.5-1.575,3.45-2.212,5.7c-0.525,1.837-1.088,3.712-1.95,5.625c-0.112,0.375-0.375,0.975-0.862,1.649
		c-0.15,1.95-0.338,3.9-0.601,5.813c-0.037,0.413-0.45,0.976-0.787,1.088c0,0.075,0,0.188,0,0.263c0,0.337,0.037,0.675,0.037,1.05
		c1.65,1.65,2.25,3.638,2.588,4.763l0,0c0.112,0.337,0.225,0.675,0.3,0.975c0.338,1.125,0.675,2.175,1.05,3.15
		c8.737,3.337,17.588,7.875,28.463,13.462c1.537,0.788,2.962,1.726,4.274,2.738c0,0-0.938-15.113-9.112-18.263
		c-0.6-0.226-1.313-0.675-1.575-1.237c-0.675-1.463-1.125-3.038-1.612-4.575c-0.3-0.976-0.563-1.913-1.649-2.4
		c-0.263-0.112-0.563-0.712-0.525-1.05c0.037-3.563,3.862-7.35,6.525-10.463c0.074-0.112,0.112-0.225,0.188-0.375
		c1.425-3.112,1.688-6.712,3.675-9.6c0.037-0.075,0.075-0.15,0.075-0.263c0.225-2.212,0.487-4.425,0.675-6.675
		c0-0.263-0.188-0.75-0.45-0.825c-1.088-0.412-1.05-1.275-1.05-2.175c0-4.35,0-8.7,0-13.013c0-2.512-0.75-4.762-2.663-6.487
		c-2.175-1.95-4.387-3.862-6.637-5.737c-1.088-0.9-4.95-1.913-8.325-1.838c-2.888,0.075-5.663,0.6-8.213,1.688
		c0.263,1.275,0.413,2.625,0.413,4.05c0,1.875,0,3.75,0,5.625c0,3.375,0,6.825,0,10.275c1.387,1.425,2.024,3.45,1.912,5.212
		L181.088,65.962z"/>
	<path fill="#E5E5E5" d="M91.388,77.625c0.525,2.4,1.087,4.763,1.762,7.125c0.525,1.725,1.5,3.375,1.8,5.175
		c0.563,3.525,5.813,6.638,8.212,9.3c0.413,0.45,0.675,1.163,0.675,1.763c-0.188,2.737-0.45,5.476-0.862,8.175
		c-0.075,0.525-0.638,1.313-1.087,1.388c-1.8,0.375-7.65,6.9-8.4,8.737c-0.225,0.563-0.787,1.125-1.35,1.388
		c-0.713,0.3-0.488,1.612-0.488,1.612c0.525-0.3,1.013-0.563,1.462-0.787l1.425-0.787c2.962-1.613,6.038-3.263,9.15-4.763h0.038
		c2.887-1.388,5.85-2.588,8.663-3.788c0.675-0.262,1.313-0.563,1.987-0.824c1.2-0.488,2.362-0.976,3.563-1.463
		c1.688-0.675,3.375-1.388,5.063-2.1c0.45-1.238,0.862-2.513,1.313-3.976l0.075-0.225c0.337-1.2,1.162-3.9,3.637-5.588
		c0.188-1.425,0.3-2.925,0.45-4.462c-2.55-3.226-4.125-6.9-4.837-11.288V82.2c-0.075-0.375-0.375-1.125-0.638-1.8
		c-0.337-0.788-0.675-1.65-0.975-2.663c-0.788-2.7-1.387-5.325-1.875-7.537c-0.225-1.013-0.262-1.95-0.262-2.588
		c0-0.188,0-0.412-0.038-0.525c-0.563-3.637,0.675-5.85,2.137-7.2c0.038-1.613,0-3.263,0-4.838c0-1.612,0-3.3,0-4.95v-0.675
		c0-2.212,0-4.5,0.188-6.825c0.15-2.138,0.675-4.013,1.388-5.7c-2.138-0.6-4.875-1.012-7.388-0.938
		c-6.075,0.15-11.662,1.837-16.462,5.813c-3.3,2.7-5.887,5.85-6.225,10.313c-0.188,2.325-0.15,4.688-0.15,7.013
		c-0.038,3.788,0.038,7.612-0.075,11.4c0,0.638-0.375,1.65-0.788,1.8c-1.575,0.488-1.575,1.5-1.388,2.775
		C91.275,75.825,91.163,76.763,91.388,77.625z"/>
</g>
</svg>
