<?xml version="1.0" encoding="utf-8"?>
<!-- Generator: Adobe Illustrator 16.0.0, SVG Export Plug-In . SVG Version: 6.00 Build 0)  -->
<!DOCTYPE svg PUBLIC "-//W3C//DTD SVG 1.1//EN" "http://www.w3.org/Graphics/SVG/1.1/DTD/svg11.dtd">
<svg version="1.1" id="Ebene_1" xmlns="http://www.w3.org/2000/svg" xmlns:xlink="http://www.w3.org/1999/xlink" x="0px" y="0px"
	 width="100px" height="100px" viewBox="0 0 100 100" enable-background="new 0 0 100 100" xml:space="preserve">
<path fill="#5EC5EC" d="M74.098,11.543c1.163,0.916,2.276,1.931,3.34,3.045c7.699,7.649,11.548,16.868,11.548,27.661
	c0,10.743-3.849,19.914-11.548,27.514c-0.122,0.172-0.246,0.407-0.37,0.704c-0.298,0.175-0.569,0.421-0.816,0.744L54.196,94.415
	c-2.847,3.242-5.655,3.242-8.428,0L22.933,70.282c-0.123-0.175-0.247-0.348-0.371-0.52c-7.698-7.6-11.547-16.771-11.547-27.514
	c0-10.792,3.849-20.011,11.547-27.661c1.065-1.114,2.203-2.129,3.415-3.045c6.807-5.594,14.838-8.391,24.096-8.391
	C59.234,3.152,67.241,5.949,74.098,11.543z M39.083,23.87c-0.741,0-1.373,0.285-1.893,0.854c-0.545,0.494-0.817,1.151-0.817,1.968
	c0,0.743,0.272,1.374,0.817,1.892c0.52,0.545,1.151,0.817,1.893,0.817c0.818,0,1.473-0.272,1.968-0.817
	c0.57-0.519,0.855-1.15,0.855-1.892c0-0.817-0.285-1.474-0.855-1.968C40.558,24.155,39.902,23.87,39.083,23.87z M83.825,42.138
	c0-9.283-3.317-17.24-9.95-23.874c-6.634-6.633-14.617-9.95-23.949-9.95c-9.282,0-17.24,3.317-23.874,9.95
	c-6.634,6.634-9.951,14.592-9.951,23.874s3.317,17.24,9.951,23.872c6.633,6.636,14.592,9.95,23.874,9.95
	c9.333,0,17.315-3.316,23.949-9.95C80.508,59.378,83.825,51.42,83.825,42.138z M52.785,44.812c2.031-2.278,3.825-3.416,5.384-3.416
	c0.396,0,0.73,0.037,1.004,0.111c0.814,1.436,1.225,3.056,1.225,4.863c0,0.941-0.11,1.807-0.335,2.599
	c-0.419,1.708-1.285,3.205-2.599,4.493c-1.98,2.005-4.356,3.008-7.128,3.008c-2.799,0-5.188-1.003-7.168-3.008
	c-1.359-1.337-2.252-2.847-2.672-4.53v-0.073c-0.223-0.769-0.333-1.597-0.333-2.488c0-0.618,0.074-1.225,0.223-1.82h0.037
	c0.346,0,1.386,0.595,3.119,1.782c1.683,1.213,3.008,1.82,3.972,1.82C48.998,48.153,50.756,47.038,52.785,44.812z M63.069,46.445
	c0-3.54-1.25-6.56-3.749-9.06c-2.55-2.525-5.596-3.787-9.135-3.787s-6.583,1.262-9.134,3.787c-2.475,2.5-3.712,5.519-3.712,9.06
	c0.024,2.573,0.779,5.062,2.264,7.463c0.248,0.298,0.508,0.619,0.78,0.965c0.124,0.124,0.271,0.272,0.445,0.445l0.223,0.261
	c2.551,2.525,5.596,3.787,9.135,3.787s6.583-1.264,9.134-3.787c0.197-0.248,0.408-0.458,0.631-0.632
	C62.028,52.521,63.069,49.688,63.069,46.445z M56.646,19.081c8.887,0,13.329,4.43,13.329,13.292v19.529
	c0,8.862-4.442,13.293-13.329,13.293H43.353c-8.885,0-13.328-4.431-13.328-13.293V32.373c0-8.862,4.443-13.292,13.328-13.292H56.646
	z"/>
</svg>
