<?xml version="1.0" encoding="utf-8"?>
<!-- Generator: Adobe Illustrator 16.0.0, SVG Export Plug-In . SVG Version: 6.00 Build 0)  -->
<!DOCTYPE svg PUBLIC "-//W3C//DTD SVG 1.1//EN" "http://www.w3.org/Graphics/SVG/1.1/DTD/svg11.dtd">
<svg version="1.1" id="Ebene_1" xmlns="http://www.w3.org/2000/svg" xmlns:xlink="http://www.w3.org/1999/xlink" x="0px" y="0px"
	 width="300px" height="300px" viewBox="0 0 300 300" enable-background="new 0 0 300 300" xml:space="preserve">
<path fill-rule="evenodd" clip-rule="evenodd" fill="#DADADA" d="M152.199,134.012c-13.775,11.812-26.16,22.64-38.803,33.196
	c-8.038,6.707-8.805,12.664,0.105,19.425c7.517,5.698,14.828,11.783,21.388,18.423c19.385,19.619,9.989,55.832-18.232,59.697
	c-39.213,0-41.463,0.13-63.239,0.13c-17.594,0-27.5-13.686-27.556-30.848c-0.173-54.464-0.019-115.244-0.105-169.711
	c-0.021-13.901,6.217-24.356,19.773-29.803c14.006-5.627,27.306-3.399,38.726,6.446c22.233,19.172,44.419,38.393,67.771,58.585
	 M132.174,116.634c-22.072-19.132-43.017-37.835-64.651-55.805c-9.897-8.217-15.735-3.686-15.787,7.358
	c-0.231,51.616,0.348,109.544,0.348,161.154c0,8.307,6.082,10.741,9.823,10.741c24.252,0,30.269,0.269,45.402,0.269
	c11.457,0,11.191-14.816,5.699-19.955c-5.958-5.576-12.428-10.769-18.574-16.236c-20.21-17.976-20.34-35.906-0.222-54.086
	C106.362,139.094,118.806,128.393,132.174,116.634z"/>
<path fill-rule="evenodd" clip-rule="evenodd" fill="#DADADA" d="M147.974,99.552c23.352-20.192,45.538-39.413,67.77-58.585
	c11.42-9.845,24.721-12.073,38.727-6.446c13.556,5.447,19.794,15.902,19.772,29.803c-0.086,54.467,0.067,115.247-0.104,169.711
	c-0.055,17.162-9.962,30.848-27.556,30.848c-21.776,0-24.025-0.13-63.239-0.13c-28.222-3.865-37.616-40.078-18.232-59.697
	c6.561-6.64,13.871-12.725,21.389-18.423c8.91-6.761,8.144-12.718,0.105-19.425c-12.645-10.557-25.028-21.385-38.804-33.196
	 M205.788,150.073c20.118,18.18,19.989,36.11-0.222,54.086c-6.146,5.468-12.616,10.66-18.574,16.236
	c-5.492,5.139-5.758,19.955,5.699,19.955c15.135,0,21.15-0.269,45.402-0.269c3.741,0,9.822-2.435,9.822-10.741
	c0-51.61,0.58-109.539,0.35-161.154c-0.053-11.044-5.891-15.575-15.788-7.358c-21.635,17.97-42.579,36.673-64.651,55.805
	C181.194,128.393,193.638,139.094,205.788,150.073z"/>
</svg>
