<?xml version="1.0" encoding="utf-8"?>
<!-- Generator: Adobe Illustrator 16.0.0, SVG Export Plug-In . SVG Version: 6.00 Build 0)  -->
<!DOCTYPE svg PUBLIC "-//W3C//DTD SVG 1.1//EN" "http://www.w3.org/Graphics/SVG/1.1/DTD/svg11.dtd">
<svg version="1.1" id="Ebene_1" xmlns="http://www.w3.org/2000/svg" xmlns:xlink="http://www.w3.org/1999/xlink" x="0px" y="0px"
	 width="24px" height="24px" viewBox="0 0 24 24" enable-background="new 0 0 24 24" xml:space="preserve">
<path fill="#56CCF2" stroke="#56CCF2" stroke-width="0.5" stroke-linecap="round" stroke-linejoin="round" stroke-miterlimit="10" d="
	M12.094,2.338c2.664,0,4.831,2.167,4.831,4.832c0,2.662-2.167,4.831-4.831,4.831S7.263,9.833,7.263,7.17
	C7.263,4.506,9.43,2.338,12.094,2.338z M12.094,0.406c-3.735,0-6.763,3.028-6.763,6.764c0,3.735,3.028,6.763,6.763,6.763
	c3.734,0,6.763-3.028,6.763-6.763C18.856,3.434,15.828,0.406,12.094,0.406z M18.247,13.308c-0.48,0.481-1.021,0.899-1.603,1.258
	c2.775,1.812,4.23,4.911,4.806,7.097H2.718c0.552-2.213,1.988-5.316,4.804-7.109C6.94,14.192,6.4,13.771,5.92,13.286
	C1.807,16.253,0.5,21.505,0.5,23.594h23.188C23.688,21.523,22.297,16.293,18.247,13.308z"/>
</svg>
