<?xml version="1.0" encoding="utf-8"?>
<!-- Generator: Adobe Illustrator 16.0.0, SVG Export Plug-In . SVG Version: 6.00 Build 0)  -->
<!DOCTYPE svg PUBLIC "-//W3C//DTD SVG 1.1//EN" "http://www.w3.org/Graphics/SVG/1.1/DTD/svg11.dtd">
<svg version="1.1" id="Ebene_1" xmlns="http://www.w3.org/2000/svg" xmlns:xlink="http://www.w3.org/1999/xlink" x="0px" y="0px"
	 width="24px" height="24px" viewBox="0 0 24 24" enable-background="new 0 0 24 24" xml:space="preserve">
<path display="none" fill="none" stroke="#56CCF2" stroke-width="1.25" stroke-linecap="round" stroke-linejoin="round" stroke-miterlimit="10" d="
	M20.535,12.264l-2.082,10.517H5.961L3.88,12.264l8.328-7.749L20.535,12.264z M14.29,13.413c0-1.151-0.934-2.083-2.083-2.083
	s-2.082,0.932-2.082,2.083c0,1.15,0.933,2.081,2.082,2.081S14.29,14.563,14.29,13.413z M23.282,11.727L12.208,1.438L1.133,11.71"/>
<g>
	
		<line fill="none" stroke="#66757F" stroke-width="1.25" stroke-linecap="round" stroke-linejoin="round" stroke-miterlimit="10" x1="3.88" y1="12.264" x2="12.208" y2="4.516"/>
	
		<line fill="none" stroke="#66757F" stroke-width="1.25" stroke-linecap="round" stroke-linejoin="round" stroke-miterlimit="10" x1="12.208" y1="4.516" x2="20.535" y2="12.264"/>
	
		<line fill="none" stroke="#66757F" stroke-width="1.25" stroke-linecap="round" stroke-linejoin="round" stroke-miterlimit="10" x1="20.535" y1="12.264" x2="18.453" y2="22.781"/>
	
		<line fill="none" stroke="#66757F" stroke-width="1.25" stroke-linecap="round" stroke-linejoin="round" stroke-miterlimit="10" x1="18.453" y1="22.781" x2="5.961" y2="22.781"/>
	
		<line fill="none" stroke="#66757F" stroke-width="1.25" stroke-linecap="round" stroke-linejoin="round" stroke-miterlimit="10" x1="5.961" y1="22.781" x2="3.88" y2="12.264"/>
</g>
<line fill="none" stroke="#66757F" stroke-width="1.25" stroke-linecap="round" stroke-linejoin="round" stroke-miterlimit="10" x1="1.133" y1="11.71" x2="12.208" y2="1.438"/>
<line fill="none" stroke="#66757F" stroke-width="1.25" stroke-linecap="round" stroke-linejoin="round" stroke-miterlimit="10" x1="12.208" y1="1.438" x2="23.282" y2="11.727"/>
<circle fill="none" stroke="#66757F" stroke-width="1.25" stroke-linecap="round" stroke-linejoin="round" stroke-miterlimit="10" cx="12.289" cy="13.412" r="2.082"/>
</svg>
